<?xml version="1.0" encoding="utf-8"?>
<!-- Generator: Adobe Illustrator 26.0.1, SVG Export Plug-In . SVG Version: 6.00 Build 0)  -->
<svg version="1.1" id="レイヤー_1" xmlns="http://www.w3.org/2000/svg" xmlns:xlink="http://www.w3.org/1999/xlink" x="0px"
	 y="0px" viewBox="0 0 311.2 113.3" style="enable-background:new 0 0 311.2 113.3;" xml:space="preserve">
<style type="text/css">
	.st0{fill:#FFFFFF;}
</style>
<g>
	<path class="st0" d="M47,0v9.9h-6.3C21.9,9.9,18,23.9,18,34c0,7.4,2.3,13.8,6.3,18c3.5,3.7,8.1,5.6,13.5,5.6c3.7,0,6.7-0.7,9.2-2
		l0.1,1h12.4V0H47z M29.8,33.7c0-4.8,1.3-12.9,10.3-13.5c1.2-0.1,4.5-0.3,6.8-0.4c0,0.5,0,24.6,0,24.8c-1.7,1.1-4.2,1.9-7,2
		c-2.8,0-5.3-0.8-6.9-2.3l0,0C31,42.2,29.8,38.6,29.8,33.7z"/>
	<path class="st0" d="M91.8,46.7c-6.7-0.1-10.3-3.7-11.4-10c0.6,0,30,0,30,0l0-0.5c0.1-4.2,0-7.8-0.1-9.4c-0.5-5.3-2.4-9.8-5.6-12.9
		c-3.6-3.5-8.5-5.3-14.7-5.3c-7.2,0-13.1,2.7-17.1,7.7l0,0c-3.6,4.5-5.5,10.7-5.5,17.5c0,11.5,6.5,23.7,24.7,23.7
		c6.9,0,13.7-2.2,17.6-4.1V42C107.5,43.2,100.8,46.8,91.8,46.7z M89.9,19.3c4.6,0,7.8,3.2,8.1,7.4c-0.5,0-16.8,0-17.5,0
		C81.9,22.1,85,19.3,89.9,19.3z"/>
	<path class="st0" d="M147.9,29v27.6h12.4V27.1c0-12.3-5.7-18.4-17.4-18.4c-4,0-8.5,1.5-10.2,2.1l0-1h-12.4v46.7h12.4
		c0,0,0-34.7,0-35c2.7-1.7,6.9-2.4,10.2-1.6C146.2,20.8,147.9,22.9,147.9,29z"/>
	<path class="st0" d="M265.5,37.6V9.9H253v29.5c0,12.3,5.7,18.3,17.4,18.3c4,0,8.5-1.5,10.2-2.1l0.1,1H293V9.9h-12.4
		c0,0,0,34.8,0,35c-2.6,1.7-6.9,2.4-10.2,1.6C267.1,45.7,265.5,43.6,265.5,37.6z"/>
	<g>
		<path class="st0" d="M170.8,0v40.5c0,5.6,1,9.5,3.1,12.3c2.4,3.2,6.4,4.8,12.1,4.8c4.6,0,9.1-1,11.6-1.8V44.6
			c-1.6,0.4-6.5,1.5-9.4,1.5c-1.8,0-3.1-0.4-3.9-1.2c-1.1-1.1-1.1-3.1-1.1-5V20.2c4.9,0,11,0.4,14.4,0.7v-11c0,0-13.9,0-14.4,0
			c0-0.5,0-9.9,0-9.9H170.8z"/>
	</g>
	<path class="st0" d="M242.4,34c-2.5-3.4-6.3-5.2-13.3-6.5c-2.9-0.6-6.4-1.2-8.4-2.2c-1-0.5-1.5-1.3-1.4-2.1c0-0.8,0.5-1.6,1.4-2
		c1.8-1,5.1-1.5,10.1-0.6c4.8,0.9,10.1,2.8,11.8,3.5V12.6c-5.8-2.9-10.9-4-16.6-3.9c-5.3,0.1-10,1.5-13.4,4.1
		c-3.6,2.7-5.6,6.5-5.8,11.2c-0.4,7.7,4.5,12.4,15.7,14.6c2.3,0.5,5.7,1.1,7.2,1.7c1.5,0.6,2.3,1.6,2.3,2.7c0,1-0.7,2-1.9,2.5
		c-2.1,0.9-5.5,0.7-7.7,0.5c-6.4-0.6-12.5-2.9-14.8-3.9v11.6c3.8,1.9,9.8,4.1,16.9,4c8.1-0.1,18.2-2.6,20.1-13.3
		C245.2,40.4,244.5,36.8,242.4,34z"/>
</g>
<g>
	<path class="st0" d="M23.2,99.7H4c0,1.6,0.3,3.3,0.8,4.6c1.2,2.8,4,5.5,8.8,5.5c1.8,0,3.5-0.4,5.3-1.2c2.1-0.9,3.8-2,3.8-2v4.2
		c-1.4,0.7-2.9,1.2-4.4,1.7c-1.5,0.4-3.1,0.6-4.7,0.6c-4.2,0-7.5-1.2-9.9-3.6S0.1,103.9,0,99.5c-0.1-4.3,1-7.8,3.3-10.3
		s5.2-3.8,9.2-3.8c3.2,0,6,1.2,7.8,3.3c1.9,2.1,2.9,4.9,2.9,8.7L23.2,99.7L23.2,99.7z M19.4,96.5c0-2.5-0.7-4.3-1.9-5.7
		s-2.9-2.1-5.2-2.1c-2.4,0-4.3,0.8-5.7,2.3S4.2,94.3,4,96.5L19.4,96.5L19.4,96.5z"/>
	<path class="st0" d="M34.4,79.6v33h-3.9v-33H34.4z"/>
	<path class="st0" d="M56.8,81.4c0,0-0.6-0.1-1.8-0.3c-0.7-0.1-1.4-0.2-2-0.2c-2.9,0-3.6,1.9-3.6,3.6V86h7v3.3h-6.9v23.3h-3.9V89.3
		H43V86h2.6v-1.6c0-5.4,4.2-6.8,6.8-6.8c0.9,0,1.7,0,2.4,0.1c0.7,0.1,1.3,0.2,1.9,0.3L56.8,81.4L56.8,81.4z"/>
	<path class="st0" d="M75,112.5c-0.7,0.2-1.6,0.3-2.4,0.5c-0.9,0.1-1.7,0.2-2.3,0.2c-2.4,0-4.2-0.6-5.4-1.9
		c-1.2-1.3-1.9-3.3-1.9-6.1V79.6h3.9V86H75c0,0,0,2.3,0,3.7c-4-0.4-8.1-0.4-8.1-0.4V103c0,1.2,0,2.2,0.1,2.8s0.2,1.3,0.6,1.9
		c0.3,0.6,0.7,1,1.3,1.2s1.4,0.4,2.5,0.4c0.6,0,1.3-0.1,2-0.3c0.7-0.2,1.7-0.6,1.7-0.6L75,112.5z"/>
	<path class="st0" d="M102.8,99.3c0,4.3-1,7.8-3.1,10.2c-2.1,2.5-4.9,3.8-8.4,3.8c-3.5,0-6.3-1.2-8.4-3.8c-2.1-2.5-3.1-5.9-3.1-10.2
		s1-7.8,3.1-10.3s4.9-3.8,8.4-3.8c3.5,0,6.3,1.3,8.4,3.8C101.7,91.6,102.8,95,102.8,99.3z M98.8,99.3c0-3.6-0.7-6.2-2-8
		c-1.3-1.7-3.2-2.6-5.5-2.6c-2.4,0-4.2,0.9-5.6,2.6s-2,4.4-2,8c0,3.5,0.7,6.1,2,7.9c1.3,1.8,3.2,2.7,5.5,2.7c2.3,0,4.2-0.9,5.5-2.7
		C98.1,105.4,98.8,102.8,98.8,99.3z"/>
	<path class="st0" d="M136.9,112.7h-3.9v-0.4c-0.7,0.3-2.6,1.1-5.9,1.1c-1.6,0-5-0.3-7.4-2.6c-1.2-1.1-2.6-3.3-2.6-6.1
		c0-2.3,0.4-3.5,1.1-4.9s1.9-2.7,3.3-3.5c3.6-2.1,8.1-2.1,10.6-2.1c0.3,0,0.4,0,0.9,0v-1c0-0.9-0.2-1.6-0.5-2.2
		c-0.3-0.6-0.8-1-1.4-1.4c-0.6-0.3-1.2-0.5-2-0.6s-1.6-0.2-2.4-0.2c-1,0-2.5,0.2-3.8,0.4c-2,0.4-3.8,1-3.8,1v-3.9
		c0.8-0.2,1.9-0.4,3.3-0.7c1.4-0.2,2.9-0.4,4.3-0.4c1.6,0,3.1,0.1,4.3,0.4c1.2,0.3,2.3,0.7,3.2,1.4c0.9,0.6,1.6,1.5,2,2.5
		c0.5,1,0.7,2.3,0.7,3.8L136.9,112.7z M132.9,97.5c-1.3,0-3.1,0-4.6,0.1c-1.7,0.2-2.8,0.4-4,1c-1.1,0.5-3.3,2.1-3.3,5.2
		c0,4.2,3.3,5.4,4.9,5.7c2.9,0.4,6-0.6,7-1.6V97.5z"/>
	<path class="st0" d="M157.4,86v4.1c-1.2-0.7-2.9-0.9-5-0.8c-1.8,0.1-3.7,0.8-4.6,1.2v22.2h-3.9V86h3.9v0.6c1-0.5,3.1-1.2,5.6-1.2
		C154.8,85.4,156.1,85.6,157.4,86z"/>
	<path class="st0" d="M181.6,110.9c-1.4,0.7-2.8,1.3-4.1,1.7s-2.7,0.6-4.1,0.6c-1.8,0-3.5-0.3-5.1-0.8c-1.5-0.6-2.9-1.4-4-2.6
		c-1.1-1.1-2-2.6-2.6-4.3c-0.6-1.7-0.9-3.8-0.9-6.1c0-4.3,1.1-7.8,3.4-10.2c2.3-2.5,5.3-3.7,9.1-3.7c1.5,0,2.9,0.2,4.3,0.6
		s2.7,1.1,3.9,1.7V92c0,0-2.1-1.4-3.9-2.2c-1.5-0.6-3.2-1-4.5-1c-2.7,0-4.8,1.2-6,2.9c-1.3,1.8-2.2,4.3-2.2,7.6
		c0,3.2,0.8,5.8,2.2,7.5c1.4,1.7,3.8,2.8,6,2.8c0.9,0,1.8-0.1,2.7-0.4s1.8-0.6,2.5-0.9c1.7-0.8,3.1-1.8,3.1-1.8L181.6,110.9z"/>
	<path class="st0" d="M206.5,96c0,0.8,0,2.3,0,3.1v13.6h-3.9V99.1c0-3.5-0.1-6.2-1.5-7.9c-1.4-1.6-3.1-2.1-5.4-2
		c-1.8,0.1-3.7,0.8-4.6,1.2v22.2h-3.9v-33h3.9v7c1-0.5,3.1-1.2,5.6-1.2C202,85.4,206.5,88.3,206.5,96z"/>
	<path class="st0" d="M218.6,78.5v4h-4.4v-4H218.6z M218.3,86v26.6h-3.9V86H218.3z"/>
	<path class="st0" d="M239.2,112.5c-0.7,0.2-1.6,0.3-2.4,0.5c-0.9,0.1-1.6,0.2-2.3,0.2c-2.4,0-4.2-0.6-5.4-1.9
		c-1.2-1.3-1.9-3.3-1.9-6.1V79.6h3.9V86h8.1c0,0,0,2.3,0,3.7c-4-0.4-8.1-0.4-8.1-0.4V103c0,1.2,0,2.2,0.1,2.8s0.2,1.3,0.6,1.9
		c0.3,0.6,0.7,1,1.3,1.2s1.4,0.4,2.5,0.4c0.6,0,1.3-0.1,2-0.3s1.7-0.6,1.7-0.6L239.2,112.5z"/>
	<path class="st0" d="M267.3,99.7h-19.2c0,1.6,0.3,3.3,0.9,4.6c1.2,2.8,4,5.5,8.8,5.5c1.8,0,3.5-0.4,5.3-1.2c2.1-0.9,3.8-2,3.8-2
		v4.2c-1.4,0.7-2.9,1.2-4.4,1.7c-1.5,0.4-3.1,0.6-4.7,0.6c-4.2,0-7.5-1.2-9.9-3.6c-2.4-2.4-3.6-5.8-3.7-10.1
		c-0.1-4.3,1-7.8,3.3-10.3s5.2-3.8,9.2-3.8c3.2,0,6,1.2,7.8,3.3c1.9,2.1,2.9,4.9,2.9,8.7L267.3,99.7L267.3,99.7z M263.5,96.5
		c0-2.5-0.7-4.3-1.9-5.7c-1.2-1.4-2.9-2.1-5.2-2.1c-2.4,0-4.3,0.8-5.7,2.3s-2.4,3.3-2.6,5.5L263.5,96.5L263.5,96.5z"/>
	<path class="st0" d="M292.2,110.9c-1.4,0.7-2.8,1.3-4.1,1.7s-2.7,0.6-4.1,0.6c-1.8,0-3.5-0.3-5.1-0.8c-1.5-0.6-2.9-1.4-4-2.6
		c-1.1-1.1-2-2.6-2.6-4.3c-0.6-1.7-0.9-3.8-0.9-6.1c0-4.3,1.1-7.8,3.4-10.2c2.3-2.5,5.3-3.7,9.1-3.7c1.5,0,2.9,0.2,4.3,0.6
		s2.7,1.1,3.9,1.7V92c0,0-2.1-1.4-3.9-2.2c-1.5-0.6-3.2-1-4.5-1c-2.7,0-4.8,1.2-6,2.9c-1.3,1.8-2.2,4.3-2.2,7.6
		c0,3.2,0.8,5.8,2.2,7.5s3.8,2.8,6,2.8c0.9,0,1.8-0.1,2.7-0.4c0.9-0.2,1.8-0.6,2.5-0.9c1.7-0.8,3.1-1.8,3.1-1.8L292.2,110.9z"/>
	<path class="st0" d="M311.2,112.5c-0.7,0.2-1.5,0.3-2.4,0.5c-0.9,0.1-1.6,0.2-2.3,0.2c-2.4,0-4.2-0.6-5.4-1.9
		c-1.2-1.3-1.9-3.3-1.9-6.1V79.6h3.9V86h8.1c0,0,0,2.3,0,3.7c-4-0.4-8.1-0.4-8.1-0.4V103c0,1.2,0,2.2,0.1,2.8s0.2,1.3,0.6,1.9
		c0.3,0.6,0.7,1,1.3,1.2s1.4,0.4,2.5,0.4c0.6,0,1.3-0.1,2-0.3s1.7-0.6,1.7-0.6L311.2,112.5z"/>
</g>
</svg>
